<svg id="Layer_1" data-name="Layer 1" xmlns="http://www.w3.org/2000/svg" viewBox="0 0 557.08 67.09"><defs><style>.cls-1{fill:#e84e32;}</style></defs><path d="M29.78,15.42h7.47V26.15c0,5.41-2.71,8.5-7.95,8.5s-8-3.09-8-8.5V8.55c0-5.41,2.72-8.5,8-8.5s8,3.09,8,8.5v3.29h-5V8.22c0-2.42-1.07-3.34-2.77-3.34s-2.76.92-2.76,3.34V26.48c0,2.42,1.07,3.29,2.76,3.29s2.77-.87,2.77-3.29V20.25H29.78Z"/><path d="M47.49.43h5.33v29H61.6v4.84H47.49Z"/><path d="M70.28,8.55c0-5.41,2.86-8.5,8.1-8.5s8.1,3.09,8.1,8.5v17.6c0,5.41-2.86,8.5-8.1,8.5s-8.1-3.09-8.1-8.5Zm5.34,17.93c0,2.42,1.07,3.34,2.76,3.34s2.77-.92,2.77-3.34V8.22c0-2.42-1.07-3.34-2.77-3.34s-2.76.92-2.76,3.34Z"/><path d="M112.68,8.22v1.2c0,3.48-1.07,5.71-3.45,6.82,2.86,1.11,4,3.67,4,7.25v2.75c0,5.22-2.77,8-8.1,8H96.72V.43h8C110.3.43,112.68,3,112.68,8.22Zm-10.63-3v8.94h2.09c2,0,3.2-.87,3.2-3.58V8.75c0-2.42-.82-3.48-2.72-3.48Zm0,13.77V29.43h3.06c1.79,0,2.76-.82,2.76-3.33v-3c0-3.14-1-4.11-3.44-4.11Z"/><path d="M140.47,34.27h-5.39l-.92-6.14h-6.55l-.92,6.14h-4.9L127.23.43H135ZM128.29,23.54h5.14L130.86,6.43Z"/><path d="M149.73.43h5.34v29h8.78v4.84H149.73Z"/><path d="M202.75,21.65v4.5c0,5.41-2.72,8.5-8,8.5s-7.95-3.09-7.95-8.5V8.55c0-5.41,2.71-8.5,7.95-8.5s8,3.09,8,8.5v3.29H197.7V8.22c0-2.42-1.07-3.34-2.76-3.34s-2.77.92-2.77,3.34V26.48c0,2.42,1.07,3.29,2.77,3.29s2.76-.87,2.76-3.29V21.65Z"/><path d="M218.12,15.46H225V20.3h-6.89v14h-5.33V.43H226.9V5.27h-8.78Z"/><path d="M235.83,8.55c0-5.41,2.86-8.5,8.09-8.5S252,3.14,252,8.55v17.6c0,5.41-2.87,8.5-8.11,8.5s-8.09-3.09-8.09-8.5Zm5.33,17.93c0,2.42,1.07,3.34,2.76,3.34s2.77-.92,2.77-3.34V8.22c0-2.42-1.07-3.34-2.77-3.34s-2.76.92-2.76,3.34Z"/><path d="M284.73,0c5.19,0,7.86,3.09,7.86,8.51V9.57h-5V8.17c0-2.42-1-3.34-2.67-3.34s-2.67.92-2.67,3.34c0,7,10.43,8.26,10.43,17.93,0,5.41-2.72,8.5-8,8.5s-7.95-3.09-7.95-8.5V24h5v2.42c0,2.41,1.07,3.28,2.77,3.28s2.76-.87,2.76-3.28c0-7-10.43-8.27-10.43-17.93C276.87,3.09,279.54,0,284.73,0Z"/><path d="M307.58.39V26.48c0,2.42,1.06,3.29,2.76,3.29s2.77-.87,2.77-3.29V.39h5V26.15c0,5.41-2.72,8.5-7.95,8.5s-8-3.09-8-8.5V.39Z"/><path d="M336.82,34.22a10.44,10.44,0,0,1-.48-4.16V24.74c0-3.14-1.07-4.3-3.49-4.3H331V34.22h-5.33V.39h8.05c5.53,0,7.91,2.56,7.91,7.78v2.66c0,3.48-1.12,5.75-3.5,6.86,2.67,1.11,3.54,3.67,3.54,7.2v5.22a9.85,9.85,0,0,0,.59,4.11ZM331,5.22V15.61h2.09c2,0,3.2-.87,3.2-3.58V8.7c0-2.42-.82-3.48-2.72-3.48Z"/><path d="M359,28,363.11.39H368l-5.24,33.83h-7.95L349.58.39H355Z"/><path d="M383.58,14.64h7.33v4.84h-7.33v9.9h9.22v4.84H378.25V.39H392.8V5.22h-9.22Z"/><path d="M408.85,23,402.11.39h5.58l4.07,15.41L415.84.39h5.09L414.19,23V34.22h-5.34Z"/><path class="cls-1" d="M450,4.83c-1.7,0-2.76.92-2.76,3.34v3.62h-5V8.51c0-5.42,2.72-8.51,8-8.51s7.95,3.09,7.95,8.51c0,10.63-10.62,14.59-10.62,20.15a3.49,3.49,0,0,0,.05.72h10.09v4.84H442.22V30.06c0-10,10.58-11.6,10.58-21.36C452.8,5.65,451.73,4.83,450,4.83Z"/><path class="cls-1" d="M467.78,8.51c0-5.42,2.87-8.51,8.1-8.51S484,3.09,484,8.51V26.1c0,5.41-2.86,8.5-8.1,8.5s-8.1-3.09-8.1-8.5Zm5.34,17.93c0,2.41,1.07,3.33,2.76,3.33s2.77-.92,2.77-3.33V8.17c0-2.42-1.07-3.34-2.77-3.34s-2.76.92-2.76,3.34Z"/><path class="cls-1" d="M502,4.83c-1.7,0-2.77.92-2.77,3.34v3.62h-5V8.51c0-5.42,2.71-8.51,7.95-8.51s8,3.09,8,8.51c0,10.63-10.63,14.59-10.63,20.15a3.49,3.49,0,0,0,.05.72h10.09v4.84H494.22V30.06c0-10,10.57-11.6,10.57-21.36C504.79,5.65,503.72,4.83,502,4.83Z"/><path class="cls-1" d="M519.78,8.51c0-5.42,2.86-8.51,8.1-8.51S536,3.09,536,8.51V26.1c0,5.41-2.86,8.5-8.1,8.5s-8.1-3.09-8.1-8.5Zm5.33,17.93c0,2.41,1.07,3.33,2.77,3.33s2.76-.92,2.76-3.33V8.17c0-2.42-1.06-3.34-2.76-3.34s-2.77.92-2.77,3.34Z"/><path d="M143.86,54.7c1.49,0,2.08.72,2.08,2.13v.45c0,1-.29,1.65-1.12,1.91.93.26,1.29,1,1.29,2.06v.81a2,2,0,0,1-2.2,2.25H141.7V54.7Zm-.27,4.08c.85,0,1.29-.28,1.29-1.28v-.56c0-.85-.28-1.26-1-1.26h-1.06v3.1Zm.32,4.55c.78,0,1.14-.41,1.14-1.3v-.85c0-1.07-.43-1.43-1.35-1.43h-.93v3.58Z"/><path d="M152.07,60.86l-2-6.16h1.11l1.5,4.72,1.5-4.72h1l-2,6.16v3.45h-1.06Z"/><path d="M168.06,59v1h-2.34v3.41h2.88v1h-3.95V54.7h3.95v1h-2.88V59Z"/><path d="M173.68,54.7l1.57,8.36,1.55-8.36h1L176,64.31h-1.58L172.6,54.7Z"/><path d="M185.31,59v1H183v3.41h2.88v1H181.9V54.7h3.95v1H183V59Z"/><path d="M192.26,54.7c1.51,0,2.14.77,2.14,2.2v.78c0,1.06-.37,1.72-1.19,2,.88.26,1.21,1,1.21,2v1.5a2.39,2.39,0,0,0,.19,1.15h-1.08a2.44,2.44,0,0,1-.18-1.17V61.63c0-1.08-.51-1.42-1.4-1.42h-.76v4.1h-1.07V54.7ZM192,59.23c.85,0,1.36-.27,1.36-1.32V57c0-.87-.32-1.32-1.11-1.32h-1.05v3.55Z"/><path d="M202.24,59v1h-2.35v3.41h2.88v1h-4V54.7h4v1h-2.88V59Z"/><path d="M211.2,57v.26h-1V57c0-.86-.33-1.37-1.1-1.37s-1.1.51-1.1,1.36c0,2.15,3.23,2.36,3.23,5.06,0,1.46-.7,2.4-2.17,2.4s-2.15-.94-2.15-2.4v-.55h1v.61c0,.86.35,1.37,1.12,1.37s1.13-.51,1.13-1.37c0-2.14-3.21-2.35-3.21-5.05,0-1.48.68-2.4,2.12-2.4S211.2,55.56,211.2,57Z"/><path d="M216.82,64.31V55.68h-1.76v-1h4.59v1h-1.77v8.63Z"/><path d="M233.32,57v.83h-1V57c0-.87-.34-1.39-1.13-1.39s-1.12.52-1.12,1.39V62c0,.87.35,1.39,1.12,1.39s1.13-.52,1.13-1.39V60.12h-1v-1h2V62c0,1.45-.68,2.41-2.16,2.41S229,63.44,229,62V57c0-1.45.69-2.41,2.16-2.41S233.32,55.57,233.32,57Z"/><path d="M239.77,54.7c1.51,0,2.14.77,2.14,2.2v.78c0,1.06-.37,1.72-1.2,2,.88.26,1.21,1,1.21,2v1.5a2.51,2.51,0,0,0,.19,1.15H241a2.58,2.58,0,0,1-.18-1.17V61.63c0-1.08-.51-1.42-1.4-1.42h-.75v4.1h-1.07V54.7Zm-.28,4.53c.85,0,1.36-.27,1.36-1.32V57c0-.87-.31-1.32-1.11-1.32h-1v3.55Z"/><path d="M246.24,57c0-1.46.73-2.41,2.19-2.41s2.21,1,2.21,2.41v5c0,1.45-.72,2.41-2.21,2.41s-2.19-1-2.19-2.41Zm1.06,5c0,.88.37,1.39,1.13,1.39s1.14-.51,1.14-1.39V57c0-.87-.35-1.39-1.14-1.39s-1.13.52-1.13,1.39Z"/><path d="M256,62c0,.87.35,1.39,1.13,1.39s1.11-.52,1.11-1.39V54.7h1V62c0,1.45-.67,2.43-2.15,2.43s-2.14-1-2.14-2.43V54.7H256Z"/><path d="M265.64,54.7c1.51,0,2.16.9,2.16,2.35V58.2c0,1.53-.72,2.32-2.24,2.32h-.94v3.79h-1.07V54.7Zm-.08,4.86c.8,0,1.18-.37,1.18-1.29V57c0-.88-.31-1.32-1.1-1.32h-1v3.88Z"/><path d="M272.39,64.31H272V63h1v1.23l-.53,1.3h-.44Z"/><path d="M287,57v.26h-1V57c0-.86-.33-1.37-1.1-1.37s-1.1.51-1.1,1.36c0,2.15,3.23,2.36,3.23,5.06,0,1.46-.7,2.4-2.17,2.4s-2.15-.94-2.15-2.4v-.55h1v.61c0,.86.35,1.37,1.12,1.37s1.13-.51,1.13-1.37c0-2.14-3.21-2.35-3.21-5.05,0-1.48.68-2.4,2.12-2.4S287,55.56,287,57Z"/><path d="M292.24,62c0,.87.34,1.39,1.12,1.39s1.11-.52,1.11-1.39V54.7h1V62c0,1.45-.67,2.43-2.15,2.43s-2.14-1-2.14-2.43V54.7h1.06Z"/><path d="M301.92,54.7c1.51,0,2.15.9,2.15,2.35V58.2c0,1.53-.71,2.32-2.24,2.32h-.94v3.79h-1.07V54.7Zm-.09,4.86c.8,0,1.18-.37,1.18-1.29V57c0-.88-.31-1.32-1.09-1.32h-1v3.88Z"/><path d="M310.3,54.7c1.5,0,2.15.9,2.15,2.35V58.2c0,1.53-.71,2.32-2.24,2.32h-.94v3.79H308.2V54.7Zm-.09,4.86c.8,0,1.18-.37,1.18-1.29V57c0-.88-.31-1.32-1.09-1.32h-1v3.88Z"/><path d="M316.49,57c0-1.46.73-2.41,2.2-2.41s2.21,1,2.21,2.41v5a2.21,2.21,0,1,1-4.41,0Zm1.06,5c0,.88.37,1.39,1.14,1.39s1.14-.51,1.14-1.39V57c0-.87-.36-1.39-1.14-1.39s-1.14.52-1.14,1.39Z"/><path d="M327.34,54.7c1.51,0,2.14.77,2.14,2.2v.78c0,1.06-.37,1.72-1.19,2,.88.26,1.21,1,1.21,2v1.5a2.39,2.39,0,0,0,.19,1.15H328.6a2.61,2.61,0,0,1-.17-1.17V61.63c0-1.08-.51-1.42-1.4-1.42h-.76v4.1H325.2V54.7Zm-.27,4.53c.85,0,1.36-.27,1.36-1.32V57c0-.87-.32-1.32-1.12-1.32h-1v3.55Z"/><path d="M335.28,64.31V55.68h-1.77v-1h4.6v1h-1.77v8.63Z"/><path d="M345.54,59v1h-2.35v3.41h2.88v1h-3.95V54.7h3.95v1h-2.88V59Z"/><path d="M352.6,54.7c1.5,0,2.18.91,2.18,2.39v4.84c0,1.47-.68,2.38-2.18,2.38h-2.25V54.7Zm0,8.63c.77,0,1.14-.48,1.14-1.35V57c0-.88-.37-1.36-1.16-1.36h-1.15v7.65Z"/><path d="M366.64,54.7c1.5,0,2.09.72,2.09,2.13v.45c0,1-.29,1.65-1.12,1.91.93.26,1.28,1,1.28,2.06v.81a2,2,0,0,1-2.19,2.25h-2.21V54.7Zm-.26,4.08c.85,0,1.29-.28,1.29-1.28v-.56c0-.85-.28-1.26-1.05-1.26h-1.06v3.1Zm.32,4.55c.78,0,1.14-.41,1.14-1.3v-.85c0-1.07-.43-1.43-1.35-1.43h-.93v3.58Z"/><path d="M374.86,60.86l-2-6.16h1.11l1.5,4.72,1.5-4.72h1l-2,6.16v3.45h-1.05Z"/><path d="M390,64.31h-1.47L387.2,54.7h1l1.13,8.18,1.07-8.16h1.05l1.06,8.17,1.08-8.19h.94l-1.31,9.61h-1.41l-.92-6.52Z"/><path d="M399.67,64.31h-1V54.7h1.35l2.23,6.95V54.7h.94v9.61h-1.11l-2.45-7.77Z"/><path d="M411.78,57v.26h-1V57c0-.86-.33-1.37-1.1-1.37s-1.09.51-1.09,1.36c0,2.15,3.22,2.36,3.22,5.06,0,1.46-.7,2.4-2.17,2.4s-2.15-.94-2.15-2.4v-.55h1v.61c0,.86.36,1.37,1.13,1.37s1.12-.51,1.12-1.37c0-2.14-3.21-2.35-3.21-5.05,0-1.48.69-2.4,2.13-2.4S411.78,55.56,411.78,57Z"/></svg>